<?xml version="1.0" encoding="UTF-8" standalone="no"?>
<!-- Generator: Adobe Illustrator 16.0.0, SVG Export Plug-In . SVG Version: 6.00 Build 0)  -->

<svg
   xmlns:dc="http://purl.org/dc/elements/1.1/"
   xmlns:cc="http://creativecommons.org/ns#"
   xmlns:rdf="http://www.w3.org/1999/02/22-rdf-syntax-ns#"
   xmlns:svg="http://www.w3.org/2000/svg"
   xmlns="http://www.w3.org/2000/svg"
   xmlns:sodipodi="http://sodipodi.sourceforge.net/DTD/sodipodi-0.dtd"
   xmlns:inkscape="http://www.inkscape.org/namespaces/inkscape"
   version="1.1"
   id="Capa_1"
   x="0px"
   y="0px"
   width="272.69662"
   height="199.78415"
   viewBox="0 0 272.69663 199.78415"
   xml:space="preserve"
   sodipodi:docname="brake.svg"
   inkscape:version="0.92.4 (5da689c313, 2019-01-14)"><metadata
   id="metadata41"><rdf:RDF><cc:Work
       rdf:about=""><dc:format>image/svg+xml</dc:format><dc:type
         rdf:resource="http://purl.org/dc/dcmitype/StillImage" /><dc:title></dc:title></cc:Work></rdf:RDF></metadata><defs
   id="defs39" /><sodipodi:namedview
   pagecolor="#ffffff"
   bordercolor="#666666"
   borderopacity="1"
   objecttolerance="10"
   gridtolerance="10"
   guidetolerance="10"
   inkscape:pageopacity="0"
   inkscape:pageshadow="2"
   inkscape:window-width="2560"
   inkscape:window-height="1360"
   id="namedview37"
   showgrid="false"
   fit-margin-top="0"
   fit-margin-left="0"
   fit-margin-right="0"
   fit-margin-bottom="0"
   inkscape:zoom="0.80721845"
   inkscape:cx="136.34831"
   inkscape:cy="99.892069"
   inkscape:window-x="-11"
   inkscape:window-y="-11"
   inkscape:window-maximized="1"
   inkscape:current-layer="Capa_1" />
<g
   id="g4"
   style="fill:none;stroke:#ff6600;stroke-width:30;stroke-miterlimit:4;stroke-dasharray:none"
   transform="matrix(0.84593288,0,0,1.0274214,12.688993,-50.297415)">
	<path
   d="M 286.935,197.286 159.028,69.379 c -3.613,-3.617 -7.895,-5.424 -12.847,-5.424 -4.952,0 -9.233,1.807 -12.85,5.424 L 5.424,197.286 C 1.807,200.9 0,205.184 0,210.132 c 0,4.948 1.807,9.233 5.424,12.847 3.621,3.617 7.902,5.428 12.85,5.428 h 255.813 c 4.949,0 9.233,-1.811 12.848,-5.428 3.613,-3.613 5.427,-7.898 5.427,-12.847 0,-4.949 -1.814,-9.232 -5.427,-12.846 z"
   id="path2"
   style="fill:none;stroke:#ff6600;stroke-width:30;stroke-miterlimit:4;stroke-dasharray:none"
   inkscape:connector-curvature="0" />
</g>
<g
   id="g6"
   transform="translate(-9.8326928,-46.288923)">
</g>
<g
   id="g8"
   transform="translate(-9.8326928,-46.288923)">
</g>
<g
   id="g10"
   transform="translate(-9.8326928,-46.288923)">
</g>
<g
   id="g12"
   transform="translate(-9.8326928,-46.288923)">
</g>
<g
   id="g14"
   transform="translate(-9.8326928,-46.288923)">
</g>
<g
   id="g16"
   transform="translate(-9.8326928,-46.288923)">
</g>
<g
   id="g18"
   transform="translate(-9.8326928,-46.288923)">
</g>
<g
   id="g20"
   transform="translate(-9.8326928,-46.288923)">
</g>
<g
   id="g22"
   transform="translate(-9.8326928,-46.288923)">
</g>
<g
   id="g24"
   transform="translate(-9.8326928,-46.288923)">
</g>
<g
   id="g26"
   transform="translate(-9.8326928,-46.288923)">
</g>
<g
   id="g28"
   transform="translate(-9.8326928,-46.288923)">
</g>
<g
   id="g30"
   transform="translate(-9.8326928,-46.288923)">
</g>
<g
   id="g32"
   transform="translate(-9.8326928,-46.288923)">
</g>
<g
   id="g34"
   transform="translate(-9.8326928,-46.288923)">
</g>
</svg>